<svg width="30" height="30" viewBox="0 0 30 30" fill="none" xmlns="http://www.w3.org/2000/svg">
<path d="M6.05914 18.9247V19.8963L6.84976 19.3316L11.3659 16.1058L11.9355 15.6989L11.3659 15.2921L6.84976 12.0663L6.05914 11.5015V12.4731V18.9247ZM23.9409 20.3226V20.0662L23.7327 19.9166L18.2489 15.974L17.9569 15.764L17.665 15.9741L15.0162 17.8799L12.3327 15.9724L12.0414 15.7653L11.7511 15.974L6.26727 19.9166L6.05914 20.0662V20.3226V22.4731V22.9731H6.55914H23.4409H23.9409V22.4731V20.3226ZM23.9409 12.4731V11.5015L23.1502 12.0663L18.6341 15.2921L18.0645 15.6989L18.6341 16.1058L23.1502 19.3316L23.9409 19.8963V18.9247V12.4731ZM23.9409 7.49104V6.99104H23.4409H6.55914H6.05914V7.49104V9.67742V9.93524L6.26917 10.0848L14.728 16.1063L15.0185 16.3131L15.3087 16.1057L23.7316 10.0842L23.9409 9.9346V9.67742V7.49104ZM22.509 0.5C23.4706 0.5 24.3703 0.684091 25.213 1.05003C26.0651 1.41999 26.8068 1.92251 27.4421 2.55785C28.0775 3.1932 28.58 3.93493 28.95 4.78696C29.3159 5.62972 29.5 6.52942 29.5 7.49104V22.4731C29.5 23.4347 29.3159 24.3413 28.949 25.1973C28.5788 26.0611 28.0764 26.8079 27.4421 27.4421C26.8068 28.0775 26.0651 28.58 25.213 28.95C24.3703 29.3159 23.4706 29.5 22.509 29.5H7.49104C6.52942 29.5 5.62972 29.3159 4.78696 28.95C3.93493 28.58 3.1932 28.0775 2.55785 27.4421C1.92359 26.8079 1.42118 26.0611 1.05097 25.1973C0.684096 24.3413 0.5 23.4347 0.5 22.4731V7.49104C0.5 6.52942 0.684091 5.62972 1.05003 4.78696C1.41999 3.93493 1.92251 3.1932 2.55785 2.55785C3.1932 1.92251 3.93493 1.41999 4.78696 1.05003C5.62972 0.684091 6.52942 0.5 7.49104 0.5H22.509Z" stroke="white"/>
</svg>
