<svg width="30" height="31" viewBox="0 0 30 31" fill="none" xmlns="http://www.w3.org/2000/svg">
<path d="M20.4565 15.555C20.4565 15.2949 20.4342 15.0253 20.3909 14.7469H20.7751V21.3885C20.7751 21.4469 20.7615 21.4611 20.7442 21.4768C20.7131 21.5049 20.6751 21.5249 20.598 21.5249H8.87351C8.79589 21.5249 8.77454 21.5052 8.76238 21.4931C8.75058 21.4814 8.73205 21.4622 8.73205 21.3885V14.7469H9.0806C9.03726 15.0253 9.01497 15.2949 9.01497 15.555C9.01497 16.3284 9.16481 17.0674 9.46535 17.7674C9.76345 18.4618 10.1747 19.0657 10.6997 19.5736C11.2215 20.0783 11.8325 20.477 12.5276 20.7707C13.2322 21.0684 13.9756 21.2167 14.7536 21.2167C15.5315 21.2167 16.2749 21.0684 16.9795 20.7707C17.6757 20.4765 18.2825 20.0766 18.7941 19.5691C19.3057 19.0616 19.7092 18.4591 20.0061 17.7674C20.3067 17.0674 20.4565 16.3284 20.4565 15.555ZM14.7536 18.2722C14.3647 18.2722 14.0015 18.2015 13.6597 18.0619C13.3141 17.9207 13.0197 17.7267 12.7715 17.4804C12.5208 17.2317 12.3254 16.9438 12.1842 16.6135C12.046 16.2903 11.975 15.9393 11.975 15.555C11.975 15.1708 12.046 14.8119 12.1862 14.4739C12.3281 14.1321 12.5233 13.8405 12.7715 13.5942C13.0197 13.3479 13.3141 13.1539 13.6597 13.0127C14.0015 12.8731 14.3647 12.8024 14.7536 12.8024C15.1425 12.8024 15.4978 12.8731 15.8247 13.0107C16.1587 13.1513 16.4492 13.3455 16.7 13.5942C16.9482 13.8405 17.1433 14.1321 17.2852 14.4739C17.4255 14.8119 17.4965 15.1708 17.4965 15.555C17.4965 15.9393 17.4255 16.2903 17.2873 16.6135C17.146 16.9438 16.9507 17.2317 16.7 17.4804C16.4492 17.7292 16.1587 17.9234 15.8247 18.0639C15.4978 18.2015 15.1425 18.2722 14.7536 18.2722ZM20.598 9.58512C20.6751 9.58512 20.7131 9.60513 20.7442 9.63319C20.7615 9.64885 20.7751 9.6631 20.7751 9.7215V11.666C20.7751 11.7244 20.7615 11.7386 20.7442 11.7543C20.7131 11.7824 20.6751 11.8024 20.598 11.8024H18.6379C18.5603 11.8024 18.539 11.7827 18.5268 11.7706C18.515 11.7589 18.4965 11.7397 18.4965 11.666V9.7215C18.4965 9.64777 18.515 9.62856 18.5268 9.61684C18.539 9.60478 18.5603 9.58512 18.6379 9.58512H20.598ZM22.3441 1.24146C23.3004 1.24146 24.2018 1.42309 25.0529 1.78494C25.9117 2.15008 26.6539 2.64552 27.284 3.27071C27.9153 3.89696 28.4144 4.62789 28.7818 5.46731C29.1451 6.29741 29.3278 7.18347 29.3278 8.13055V22.9087C29.3278 23.8558 29.1451 24.7486 28.7808 25.5918C28.4132 26.4429 27.9142 27.1787 27.284 27.8039C26.6539 28.4291 25.9117 28.9245 25.0529 29.2897C24.2018 29.6515 23.3004 29.8332 22.3441 29.8332H7.44805C6.49176 29.8332 5.59716 29.6515 4.7593 29.2906C3.91223 28.9257 3.17506 28.4302 2.5438 27.8039C1.91364 27.1787 1.41465 26.4429 1.04701 25.5918C0.682742 24.7486 0.5 23.8558 0.5 22.9087V8.13055C0.5 7.18347 0.682737 6.29741 1.04605 5.46731C1.41345 4.62789 1.91255 3.89696 2.5438 3.27071C3.17506 2.64444 3.91223 2.14891 4.7593 1.78401C5.59716 1.42308 6.49177 1.24146 7.44805 1.24146H22.3441ZM23.7351 9.08512C23.7351 8.41158 23.4931 7.82363 23.017 7.35134C22.5411 6.8792 21.9504 6.64062 21.2751 6.64062H8.23205C7.55674 6.64062 6.96598 6.8792 6.49008 7.35134C6.01401 7.82363 5.77204 8.41158 5.77204 9.08512V22.0249C5.77204 22.6984 6.01402 23.2863 6.49008 23.7586C6.96598 24.2308 7.55674 24.4694 8.23205 24.4694H21.2751C21.9504 24.4694 22.5411 24.2308 23.017 23.7586C23.4931 23.2863 23.7351 22.6984 23.7351 22.0249V9.08512Z" stroke="white"/>
</svg>
