<svg width="31" height="31" viewBox="0 0 31 31" fill="none" xmlns="http://www.w3.org/2000/svg">
<path d="M11.5915 11.8428V11.3428H11.0915H9.71168C10.1504 11.2559 10.5448 11.0455 10.8854 10.7186C11.3536 10.2691 11.5915 9.70201 11.5915 9.04976C11.5915 8.39751 11.3536 7.83046 10.8854 7.38097C10.4264 6.94033 9.86966 6.71133 9.23836 6.71133C8.59004 6.71133 8.01951 6.93568 7.55571 7.38097C7.08752 7.83046 6.84962 8.39751 6.84962 9.04976C6.84962 9.70201 7.08752 10.2691 7.55571 10.7186C7.89894 11.0481 8.30061 11.2566 8.749 11.3428H7.34962H6.84962V11.8428V23.8633V24.3633H7.34962H11.0915H11.5915V23.8633V11.8428ZM21.8123 12.1132L21.8123 12.1132L21.8087 12.1113C21.0393 11.6901 20.1571 11.4743 19.176 11.449C18.4711 11.4308 17.8067 11.5107 17.1864 11.6927V11.3428H16.6864H12.9446H12.4446V11.8428V23.8633V24.3633H12.9446H16.6864H17.1864V23.8633V16.8229L18.4368 16.2171L18.4368 16.2171L18.441 16.215C18.5337 16.169 18.7079 16.1257 19.0028 16.1257C19.2915 16.1257 19.4186 16.1796 19.4621 16.2104L19.494 16.233L19.529 16.2504C19.5445 16.2581 19.626 16.3141 19.751 16.5208C19.8667 16.7123 19.8926 16.8338 19.8926 16.8985V23.8633V24.3633H20.3926H24.1345H24.6345V23.8633V16.8985C24.6345 15.9518 24.3683 15.0348 23.8534 14.1537C23.337 13.2699 22.6569 12.5846 21.8123 12.1132ZM23.2079 1.24146C24.1642 1.24146 25.0588 1.42308 25.8967 1.78401C26.7437 2.14891 27.4809 2.64444 28.1122 3.27071C28.7434 3.89696 29.2425 4.62789 29.6099 5.46731C29.9732 6.29741 30.156 7.18347 30.156 8.13055V22.9087C30.156 23.8558 29.9732 24.7486 29.609 25.5918C29.2413 26.4429 28.7423 27.1787 28.1122 27.8039C27.4809 28.4302 26.7437 28.9257 25.8967 29.2906C25.0588 29.6515 24.1642 29.8332 23.2079 29.8332H8.27617C7.31989 29.8332 6.42528 29.6515 5.58742 29.2906C4.74035 28.9257 4.00319 28.4302 3.37192 27.8039C2.74176 27.1787 2.24277 26.4429 1.87513 25.5918C1.51087 24.7486 1.32812 23.8558 1.32812 22.9087V8.13055C1.32812 7.18347 1.51086 6.29741 1.87418 5.46731C2.24157 4.62789 2.74067 3.89696 3.37192 3.27071C4.00319 2.64444 4.74035 2.14891 5.58742 1.78401C6.42528 1.42308 7.31989 1.24146 8.27617 1.24146H23.2079Z" stroke="white"/>
</svg>
